<svg xmlns="http://www.w3.org/2000/svg" viewBox="0 0 32 32" width="32" height="32">
  <!-- Brain/neural network icon for AI/ML glossary -->
  <defs>
    <linearGradient id="brainGradient" x1="0%" y1="0%" x2="100%" y2="100%">
      <stop offset="0%" style="stop-color:#2196F3;stop-opacity:1" />
      <stop offset="100%" style="stop-color:#1976D2;stop-opacity:1" />
    </linearGradient>
  </defs>

  <!-- Brain outline -->
  <path d="M16 2C12.5 2 9.5 3.5 7.5 6C6 7 5 9 5 11C5 13.5 6 15.5 7.5 17C9 18.5 11 19.5 13.5 20C14.5 20.5 15.5 21 16 21C16.5 21 17.5 20.5 18.5 20C21 19.5 23 18.5 24.5 17C26 15.5 27 13.5 27 11C27 9 26 7 24.5 6C22.5 3.5 19.5 2 16 2Z"
        fill="url(#brainGradient)"
        stroke="#1565C0"
        stroke-width="0.5"/>

  <!-- Neural connections -->
  <circle cx="12" cy="10" r="1.5" fill="#FFFFFF" opacity="0.9"/>
  <circle cx="20" cy="10" r="1.5" fill="#FFFFFF" opacity="0.9"/>
  <circle cx="16" cy="14" r="1.5" fill="#FFFFFF" opacity="0.8"/>
  <circle cx="10" cy="16" r="1" fill="#FFFFFF" opacity="0.7"/>
  <circle cx="22" cy="16" r="1" fill="#FFFFFF" opacity="0.7"/>

  <!-- Connection lines -->
  <path d="M12 10 L16 14 L20 10" stroke="#FFFFFF" stroke-width="1" opacity="0.6" fill="none"/>
  <path d="M10 16 L13.5 18 L16 14" stroke="#FFFFFF" stroke-width="0.8" opacity="0.5" fill="none"/>
  <path d="M22 16 L18.5 18 L16 14" stroke="#FFFFFF" stroke-width="0.8" opacity="0.5" fill="none"/>
</svg>
